HIERARCHY
ROOT Hips
{
	OFFSET	0.00	0.00	0.00
	CHANNELS 6 Xposition Yposition Zposition Zrotation Xrotation Yrotation
	JOINT LeftUpLeg
	{
		OFFSET	 0.126116	-0.014019	-0.065224
		CHANNELS 3 Zrotation Xrotation Yrotation
		JOINT LeftLeg
		{
			OFFSET	 0.000000	 0.000000	 0.569914
			CHANNELS 3 Zrotation Xrotation Yrotation
			JOINT LeftFoot
			{
				OFFSET	 0.000000	 0.000000	 0.544423
				CHANNELS 3 Zrotation Xrotation Yrotation
				JOINT LeftToeBase
				{
					OFFSET	 0.000000	 0.000000	 0.207117
					CHANNELS 3 Zrotation Xrotation Yrotation
					End Site
					{
						OFFSET	 0.000000	 0.000000	 0.207117
					}
				}
			}
		}
	}
	JOINT RightUpLeg
	{
		OFFSET	-0.124023	-0.008373	-0.065224
		CHANNELS 3 Zrotation Xrotation Yrotation
		JOINT RightLeg
		{
			OFFSET	 0.000000	 0.000000	 0.570047
			CHANNELS 3 Zrotation Xrotation Yrotation
			JOINT RightFoot
			{
				OFFSET	 0.000000	 0.000000	 0.544354
				CHANNELS 3 Zrotation Xrotation Yrotation
				JOINT RightToeBase
				{
					OFFSET	 0.000000	 0.000000	 0.207540
					CHANNELS 3 Zrotation Xrotation Yrotation
					End Site
					{
						OFFSET	 0.000000	 0.000000	 0.207540
					}
				}
			}
		}
	}
	JOINT Spine
	{
		OFFSET	 0.000184	-0.007763	 0.117403
		CHANNELS 3 Zrotation Xrotation Yrotation
		JOINT Spine1
		{
			OFFSET	 0.000000	 0.000000	 0.137269
			CHANNELS 3 Zrotation Xrotation Yrotation
			JOINT Spine2
			{
				OFFSET	 0.000000	 0.000000	 0.156879
				CHANNELS 3 Zrotation Xrotation Yrotation
				JOINT LeftShoulder
				{
					OFFSET	 0.080501	-0.002496	 0.160144
					CHANNELS 3 Zrotation Xrotation Yrotation
					JOINT LeftArm
					{
						OFFSET	 0.000000	 0.000000	 0.164363
						CHANNELS 3 Zrotation Xrotation Yrotation
						JOINT LeftForeArm
						{
							OFFSET	 0.000000	 0.000000	 0.364576
							CHANNELS 3 Zrotation Xrotation Yrotation
							JOINT LeftHand
							{
								OFFSET	 0.000000	 0.000000	 0.360812
								CHANNELS 3 Zrotation Xrotation Yrotation
								JOINT LeftHandIndex1
								{
									OFFSET	 0.000000	 0.000000	 0.086006
									CHANNELS 3 Zrotation Xrotation Yrotation
									JOINT LeftHandIndex2
									{
										OFFSET	 0.000000	 0.000000	 0.047236
										CHANNELS 3 Zrotation Xrotation Yrotation
										JOINT LeftHandIndex3
										{
											OFFSET	-0.004284	-0.000551	 0.038166
											CHANNELS 3 Zrotation Xrotation Yrotation
											End Site
											{
												OFFSET	-0.004284	-0.000551	 0.038166
											}
										}
									}
								}
							}
						}
					}
				}
				JOINT Neck
				{
					OFFSET	 0.000000	 0.000000	 0.176489
					CHANNELS 3 Zrotation Xrotation Yrotation
					JOINT Head
					{
						OFFSET	 0.000000	-0.001747	 0.077940
						CHANNELS 3 Zrotation Xrotation Yrotation
						End Site
						{
							OFFSET	 0.000000	-0.001747	 0.077940
						}
					}
				}
				JOINT RightShoulder
				{
					OFFSET	-0.080363	 0.000306	 0.159706
					CHANNELS 3 Zrotation Xrotation Yrotation
					JOINT RightArm
					{
						OFFSET	 0.000000	 0.000000	 0.164196
						CHANNELS 3 Zrotation Xrotation Yrotation
						JOINT RightForeArm
						{
							OFFSET	 0.000000	 0.000000	 0.365611
							CHANNELS 3 Zrotation Xrotation Yrotation
							JOINT RightHand
							{
								OFFSET	 0.000000	 0.000000	 0.360648
								CHANNELS 3 Zrotation Xrotation Yrotation
								JOINT RightHandIndex1
								{
									OFFSET	 0.000000	 0.000000	 0.069977
									CHANNELS 3 Zrotation Xrotation Yrotation
									JOINT RightHandIndex2
									{
										OFFSET	 0.000000	 0.000000	 0.052305
										CHANNELS 3 Zrotation Xrotation Yrotation
										JOINT RightHandIndex3
										{
											OFFSET	 0.009002	-0.000782	 0.042196
											CHANNELS 3 Zrotation Xrotation Yrotation
											End Site
											{
												OFFSET	 0.009002	-0.000782	 0.042196
											}
										}
									}
								}
							}
						}
					}
				}
			}
		}
	}
}
MOTION
Frames:    6
Frame Time: 0.03333334
 2.890677	 6.574169	 0.633666	-99.593380	-2.100714	-1.235586	 7.338178	 21.043230	-176.905200	-3.532978	-11.629620	 1.495498	 3.795272	 84.428670	-0.354861	-2.293899	 40.362930	-0.285403	 5.215634	-35.876830	-177.628300	 0.460072	-41.362850	 4.542760	 130.698700	 89.728760	-125.144600	 2.368220	 31.552560	 0.070017	 2.805694	 3.340410	 2.317730	-6.678836	-1.420844	 0.460310	-7.818443	-3.725906	-1.281756	-91.776180	 78.527400	-180.000000	 35.863250	 60.507520	-54.114730	-13.797460	-0.396440	-43.838420	 3.777207	-2.118732	-5.364628	-3.812334	 37.924440	-2.927599	-2.450526	 36.184240	 0.754587	-1.378229	 35.397820	-2.634230	 1.225733	 2.177829	-4.964900	-0.621863	-9.475542	 3.277807	 89.782120	 78.203930	 180.000000	-37.500020	 72.318350	 34.893130	 5.985743	-3.548601	 29.632390	-13.671560	-3.256629	 9.558353	 6.437017	 35.671460	-0.771858	 2.830251	 35.756010	-7.813440	-2.350882	 35.473990	 5.254307
 2.839649	 6.584787	 0.631843	-99.112150	-1.911098	-1.319127	 7.542061	 23.217380	-177.392600	-3.266189	-11.619420	 1.573255	 4.511767	 84.200320	-0.691842	-2.254103	 43.440090	-0.372028	 5.140887	-36.065410	-177.412400	-0.224837	-38.121990	 3.675213	 153.024100	 89.371310	-147.840900	 2.360620	 32.754840	 0.097539	 6.264202	 3.209430	 2.075716	-7.599437	-1.471594	 0.285841	-8.827384	-3.741920	-1.435292	-91.776170	 78.527420	-180.000000	 36.721370	 60.736690	-55.015740	-13.946670	-0.246347	-44.490990	 3.752753	-2.115335	-5.365314	-3.812334	 37.924440	-2.927599	-2.450526	 36.184240	 0.754587	-1.378229	 35.397820	-2.634230	 1.235762	 2.100173	-5.014064	-0.833669	-9.597742	 3.737655	 89.782090	 78.203830	-180.000000	-36.287770	 72.962080	 33.526970	 6.303521	-3.447905	 28.803200	-14.140240	-3.271978	 9.547153	 6.437017	 35.671460	-0.771858	 2.830251	 35.756010	-7.813440	-2.350882	 35.473990	 5.254307
 2.780916	 6.598151	 0.629846	-98.574600	-2.012203	-1.324034	 7.925500	 25.700020	-178.434200	-2.557281	-11.598680	 1.720725	 5.396042	 82.769620	-0.782177	-2.208747	 46.321920	-0.460278	 4.876619	-35.567300	-177.525600	 0.488720	-38.046180	 3.993370	 138.525300	 89.602380	-132.925700	 2.366447	 31.844390	 0.076641	 9.872142	 3.148504	 1.901108	-8.481066	-1.439469	 0.037067	-9.728824	-3.597226	-1.586464	-91.776180	 78.527400	-180.000000	 38.100400	 61.400380	-55.842050	-14.137310	-0.109059	-44.275700	 3.776509	-2.118122	-5.364755	-3.812334	 37.924440	-2.927599	-2.450526	 36.184240	 0.754587	-1.378229	 35.397820	-2.634230	 1.311452	 2.126494	-5.060014	-0.993874	-9.709693	 4.130980	 89.782120	 78.203870	 180.000000	-35.344820	 73.461900	 32.490440	 6.440492	-3.330589	 27.898170	-14.654160	-3.290441	 9.532990	 6.437017	 35.671460	-0.771858	 2.830251	 35.756010	-7.813440	-2.350882	 35.473990	 5.254307
 2.719563	 6.613153	 0.627836	-98.016950	-2.145961	-1.272392	 8.438957	 28.148840	-179.870100	-1.704985	-11.575490	 1.872351	 5.889900	 79.839900	-0.349875	-2.154697	 49.170980	-0.555881	 4.725646	-34.211950	-177.850700	 1.679382	-39.860050	 4.948696	 24.895050	 89.522350	-18.547160	 2.378257	 29.739110	 0.029485	 13.244110	 3.008222	 1.829990	-9.280542	-1.352866	-0.252280	-10.444380	-3.276043	-1.740367	-91.776180	 78.527400	-180.000000	 39.713480	 62.383760	-56.127750	-14.309530	 0.030132	-43.278390	 3.794979	-2.097574	-5.368588	-3.812334	 37.924440	-2.927599	-2.450526	 36.184240	 0.754587	-1.378229	 35.397820	-2.634230	 1.452915	 2.451749	-5.130898	-1.094491	-9.922829	 4.451330	 89.782120	 78.203930	 180.000000	-34.308000	 73.827300	 31.276510	 6.516719	-3.206175	 27.137850	-15.098650	-3.306399	 9.519499	 6.437017	 35.671460	-0.771858	 2.830251	 35.756010	-7.813440	-2.350882	 35.473990	 5.254307
 2.650762	 6.630633	 0.626781	-97.178240	-2.262321	-1.120669	 9.094989	 30.655750	 178.206800	-0.930974	-11.559510	 1.970227	 5.551395	 74.337940	 0.890550	-2.106765	 51.317840	-0.634629	 3.845963	-32.492150	-178.671500	 3.773765	-42.493690	 6.278919	 4.055933	 87.905660	 3.104557	 2.384096	 28.515320	 0.002737	 16.603150	 2.796380	 1.550433	-10.136630	-1.262981	-0.551025	-11.105750	-2.926304	-1.954623	-91.776180	 78.527400	-180.000000	 41.591790	 63.795670	-55.883530	-14.317590	 0.023748	-41.259330	 4.097462	-2.113013	-5.365220	-3.812334	 37.924440	-2.927599	-2.450526	 36.184240	 0.754587	-1.378229	 35.397820	-2.634230	 1.594676	 2.884626	-5.087259	-1.205537	-10.006750	 4.567586	 89.782120	 78.203870	 180.000000	-32.635480	 74.104340	 29.130560	 6.705410	-3.045860	 26.622630	-15.358860	-3.317211	 9.510462	 6.437017	 35.671460	-0.771858	 2.830251	 35.756010	-7.813440	-2.350882	 35.473990	 5.254307
 2.588735	 6.646267	 0.628306	-96.216050	-2.529447	-1.042009	 9.440614	 32.108660	 176.781900	-1.388605	-12.316050	 1.833555	 4.735182	 66.932950	 1.318161	-2.118668	 50.812600	-0.615509	 2.687106	-30.804940	-179.187200	 4.786688	-44.985890	 6.697545	 3.595931	 85.316420	 3.237054	 2.392051	 26.537880	-0.039562	 19.480700	 2.632892	 1.253266	-10.829580	-1.085356	-0.736042	-11.770130	-2.673379	-2.101214	-91.776180	 78.527400	-180.000000	 43.379330	 65.322170	-55.843240	-14.283130	-0.145691	-38.524620	 4.725060	-2.110466	-5.364779	-3.812334	 37.924440	-2.927599	-2.450526	 36.184240	 0.754587	-1.378229	 35.397820	-2.634230	 1.673988	 3.060229	-4.953818	-1.320864	-9.850337	 4.484159	 89.782100	 78.203850	-180.000000	-31.988980	 74.180160	 28.335890	 6.952312	-2.868856	 26.419630	-15.350500	-3.326277	 9.504967	 6.437017	 35.671460	-0.771858	 2.830251	 35.756010	-7.813440	-2.350882	 35.473990	 5.254307
